<mxfile host="app.diagrams.net" modified="2024-05-18T07:33:09.573Z" agent="Mozilla/5.0 (Windows NT 10.0; Win64; x64) AppleWebKit/537.36 (KHTML, like Gecko) Chrome/124.0.0.0 Safari/537.36" etag="ULS1HTBdo0Id3wblCRa0" version="24.4.4" type="device">
  <diagram id="C5RBs43oDa-KdzZeNtuy" name="Page-1">
    <mxGraphModel dx="1411" dy="706" grid="1" gridSize="10" guides="1" tooltips="1" connect="1" arrows="1" fold="1" page="1" pageScale="1" pageWidth="827" pageHeight="1169" math="0" shadow="0">
      <root>
        <mxCell id="WIyWlLk6GJQsqaUBKTNV-0" />
        <mxCell id="WIyWlLk6GJQsqaUBKTNV-1" parent="WIyWlLk6GJQsqaUBKTNV-0" />
        <mxCell id="5Zuq6f4ll3MY33p2Iip3-23" style="edgeStyle=orthogonalEdgeStyle;rounded=0;orthogonalLoop=1;jettySize=auto;html=1;entryX=0.5;entryY=0;entryDx=0;entryDy=0;" parent="WIyWlLk6GJQsqaUBKTNV-1" source="5Zuq6f4ll3MY33p2Iip3-24" target="5Zuq6f4ll3MY33p2Iip3-29" edge="1">
          <mxGeometry relative="1" as="geometry" />
        </mxCell>
        <mxCell id="5Zuq6f4ll3MY33p2Iip3-24" value="Start Main" style="rounded=1;whiteSpace=wrap;html=1;arcSize=50;" parent="WIyWlLk6GJQsqaUBKTNV-1" vertex="1">
          <mxGeometry x="100" y="41" width="120" height="60" as="geometry" />
        </mxCell>
        <mxCell id="5Zuq6f4ll3MY33p2Iip3-25" style="edgeStyle=orthogonalEdgeStyle;rounded=0;orthogonalLoop=1;jettySize=auto;html=1;entryX=0.5;entryY=0;entryDx=0;entryDy=0;" parent="WIyWlLk6GJQsqaUBKTNV-1" source="5Zuq6f4ll3MY33p2Iip3-29" target="PBuQCArFa5jbhN4xJp0--0" edge="1">
          <mxGeometry relative="1" as="geometry">
            <mxPoint x="160" y="281" as="targetPoint" />
          </mxGeometry>
        </mxCell>
        <mxCell id="5Zuq6f4ll3MY33p2Iip3-26" value="Case 2, Connection Counts" style="edgeLabel;html=1;align=center;verticalAlign=middle;resizable=0;points=[];" parent="5Zuq6f4ll3MY33p2Iip3-25" vertex="1" connectable="0">
          <mxGeometry x="-0.1884" y="-2" relative="1" as="geometry">
            <mxPoint as="offset" />
          </mxGeometry>
        </mxCell>
        <mxCell id="5Zuq6f4ll3MY33p2Iip3-27" style="edgeStyle=orthogonalEdgeStyle;rounded=0;orthogonalLoop=1;jettySize=auto;html=1;entryX=0.5;entryY=0;entryDx=0;entryDy=0;" parent="WIyWlLk6GJQsqaUBKTNV-1" source="5Zuq6f4ll3MY33p2Iip3-29" target="5Zuq6f4ll3MY33p2Iip3-38" edge="1">
          <mxGeometry relative="1" as="geometry">
            <Array as="points">
              <mxPoint x="70" y="161" />
              <mxPoint x="70" y="500" />
              <mxPoint x="160" y="500" />
            </Array>
          </mxGeometry>
        </mxCell>
        <mxCell id="5Zuq6f4ll3MY33p2Iip3-28" value="Quit" style="edgeLabel;html=1;align=center;verticalAlign=middle;resizable=0;points=[];" parent="5Zuq6f4ll3MY33p2Iip3-27" vertex="1" connectable="0">
          <mxGeometry x="-0.6984" y="-3" relative="1" as="geometry">
            <mxPoint as="offset" />
          </mxGeometry>
        </mxCell>
        <mxCell id="5Zuq6f4ll3MY33p2Iip3-29" value="Input Command" style="shape=parallelogram;perimeter=parallelogramPerimeter;whiteSpace=wrap;html=1;fixedSize=1;" parent="WIyWlLk6GJQsqaUBKTNV-1" vertex="1">
          <mxGeometry x="100" y="131" width="120" height="60" as="geometry" />
        </mxCell>
        <mxCell id="5Zuq6f4ll3MY33p2Iip3-30" style="edgeStyle=orthogonalEdgeStyle;rounded=0;orthogonalLoop=1;jettySize=auto;html=1;entryX=0.5;entryY=0;entryDx=0;entryDy=0;" parent="WIyWlLk6GJQsqaUBKTNV-1" source="5Zuq6f4ll3MY33p2Iip3-29" target="5Zuq6f4ll3MY33p2Iip3-29" edge="1">
          <mxGeometry relative="1" as="geometry">
            <Array as="points">
              <mxPoint x="240" y="161" />
              <mxPoint x="240" y="121" />
              <mxPoint x="160" y="121" />
            </Array>
          </mxGeometry>
        </mxCell>
        <mxCell id="5Zuq6f4ll3MY33p2Iip3-31" value="Command not exists" style="edgeLabel;html=1;align=center;verticalAlign=middle;resizable=0;points=[];" parent="5Zuq6f4ll3MY33p2Iip3-30" vertex="1" connectable="0">
          <mxGeometry x="-0.4153" y="-2" relative="1" as="geometry">
            <mxPoint x="28" y="-3" as="offset" />
          </mxGeometry>
        </mxCell>
        <mxCell id="5Zuq6f4ll3MY33p2Iip3-35" value="TraverseGraph" style="shape=process;whiteSpace=wrap;html=1;backgroundOutline=1;" parent="WIyWlLk6GJQsqaUBKTNV-1" vertex="1">
          <mxGeometry x="100" y="398" width="120" height="60" as="geometry" />
        </mxCell>
        <mxCell id="5Zuq6f4ll3MY33p2Iip3-36" style="edgeStyle=orthogonalEdgeStyle;rounded=0;orthogonalLoop=1;jettySize=auto;html=1;entryX=0.5;entryY=0;entryDx=0;entryDy=0;exitX=1;exitY=0.5;exitDx=0;exitDy=0;" parent="WIyWlLk6GJQsqaUBKTNV-1" source="5Zuq6f4ll3MY33p2Iip3-35" target="5Zuq6f4ll3MY33p2Iip3-29" edge="1">
          <mxGeometry relative="1" as="geometry">
            <Array as="points">
              <mxPoint x="220" y="430" />
              <mxPoint x="340" y="430" />
              <mxPoint x="340" y="121" />
              <mxPoint x="160" y="121" />
            </Array>
            <mxPoint x="220" y="540" as="sourcePoint" />
            <mxPoint x="260" y="131" as="targetPoint" />
          </mxGeometry>
        </mxCell>
        <mxCell id="5Zuq6f4ll3MY33p2Iip3-38" value="End Main" style="rounded=1;whiteSpace=wrap;html=1;" parent="WIyWlLk6GJQsqaUBKTNV-1" vertex="1">
          <mxGeometry x="100" y="530" width="120" height="60" as="geometry" />
        </mxCell>
        <mxCell id="PBuQCArFa5jbhN4xJp0--11" value="" style="edgeStyle=none;curved=1;rounded=0;orthogonalLoop=1;jettySize=auto;html=1;fontSize=12;startSize=8;endSize=8;" parent="WIyWlLk6GJQsqaUBKTNV-1" source="5Zuq6f4ll3MY33p2Iip3-46" target="PBuQCArFa5jbhN4xJp0--10" edge="1">
          <mxGeometry relative="1" as="geometry" />
        </mxCell>
        <mxCell id="5Zuq6f4ll3MY33p2Iip3-46" value="Start TraverseGraph" style="rounded=1;whiteSpace=wrap;html=1;arcSize=50;" parent="WIyWlLk6GJQsqaUBKTNV-1" vertex="1">
          <mxGeometry x="502" y="41" width="120" height="60" as="geometry" />
        </mxCell>
        <mxCell id="maL6StaA8YDYa5zgpQ4w-1" value="" style="edgeStyle=orthogonalEdgeStyle;rounded=0;orthogonalLoop=1;jettySize=auto;html=1;" edge="1" parent="WIyWlLk6GJQsqaUBKTNV-1" source="5Zuq6f4ll3MY33p2Iip3-55" target="5Zuq6f4ll3MY33p2Iip3-56">
          <mxGeometry relative="1" as="geometry" />
        </mxCell>
        <mxCell id="5Zuq6f4ll3MY33p2Iip3-55" value="writeTraverseAll" style="shape=process;whiteSpace=wrap;html=1;backgroundOutline=1;" parent="WIyWlLk6GJQsqaUBKTNV-1" vertex="1">
          <mxGeometry x="502" y="250" width="120" height="60" as="geometry" />
        </mxCell>
        <mxCell id="5Zuq6f4ll3MY33p2Iip3-56" value="End TraverseGraph" style="rounded=1;whiteSpace=wrap;html=1;" parent="WIyWlLk6GJQsqaUBKTNV-1" vertex="1">
          <mxGeometry x="502" y="360" width="120" height="60" as="geometry" />
        </mxCell>
        <mxCell id="PBuQCArFa5jbhN4xJp0--28" value="" style="edgeStyle=none;curved=1;rounded=0;orthogonalLoop=1;jettySize=auto;html=1;fontSize=12;startSize=8;endSize=8;" parent="WIyWlLk6GJQsqaUBKTNV-1" source="5Zuq6f4ll3MY33p2Iip3-58" target="PBuQCArFa5jbhN4xJp0--15" edge="1">
          <mxGeometry relative="1" as="geometry" />
        </mxCell>
        <mxCell id="5Zuq6f4ll3MY33p2Iip3-58" value="graph::writeTraverseAll" style="rounded=1;whiteSpace=wrap;html=1;arcSize=50;" parent="WIyWlLk6GJQsqaUBKTNV-1" vertex="1">
          <mxGeometry x="926.0899999999999" y="41" width="135.94" height="60" as="geometry" />
        </mxCell>
        <mxCell id="PBuQCArFa5jbhN4xJp0--38" value="" style="edgeStyle=none;curved=1;rounded=0;orthogonalLoop=1;jettySize=auto;html=1;fontSize=12;startSize=8;endSize=8;" parent="WIyWlLk6GJQsqaUBKTNV-1" source="5Zuq6f4ll3MY33p2Iip3-86" target="PBuQCArFa5jbhN4xJp0--37" edge="1">
          <mxGeometry relative="1" as="geometry" />
        </mxCell>
        <mxCell id="5Zuq6f4ll3MY33p2Iip3-86" value="以BFS獲取&lt;span style=&quot;background-color: initial;&quot;&gt;節點可達的相異getID&lt;/span&gt;" style="shape=process;whiteSpace=wrap;html=1;backgroundOutline=1;" parent="WIyWlLk6GJQsqaUBKTNV-1" vertex="1">
          <mxGeometry x="934.06" y="228" width="120" height="60" as="geometry" />
        </mxCell>
        <mxCell id="nBRJpQgrgmeqpI3Wd9oI-1" value="" style="edgeStyle=orthogonalEdgeStyle;rounded=0;orthogonalLoop=1;jettySize=auto;html=1;" parent="WIyWlLk6GJQsqaUBKTNV-1" source="Rqaln8O-QJsJvmHKmD0x-7" target="nBRJpQgrgmeqpI3Wd9oI-0" edge="1">
          <mxGeometry relative="1" as="geometry" />
        </mxCell>
        <mxCell id="Rqaln8O-QJsJvmHKmD0x-7" value="BFS function" style="rounded=1;whiteSpace=wrap;html=1;arcSize=50;" parent="WIyWlLk6GJQsqaUBKTNV-1" vertex="1">
          <mxGeometry x="1481" y="40" width="120" height="60" as="geometry" />
        </mxCell>
        <mxCell id="PBuQCArFa5jbhN4xJp0--52" value="" style="edgeStyle=none;curved=1;rounded=0;orthogonalLoop=1;jettySize=auto;html=1;fontSize=12;startSize=8;endSize=8;" parent="WIyWlLk6GJQsqaUBKTNV-1" source="Rqaln8O-QJsJvmHKmD0x-14" target="PBuQCArFa5jbhN4xJp0--51" edge="1">
          <mxGeometry relative="1" as="geometry" />
        </mxCell>
        <mxCell id="Rqaln8O-QJsJvmHKmD0x-14" value="取出當前節點" style="rounded=0;whiteSpace=wrap;html=1;" parent="WIyWlLk6GJQsqaUBKTNV-1" vertex="1">
          <mxGeometry x="1481" y="330" width="120" height="60" as="geometry" />
        </mxCell>
        <mxCell id="PBuQCArFa5jbhN4xJp0--59" value="" style="edgeStyle=none;curved=1;rounded=0;orthogonalLoop=1;jettySize=auto;html=1;fontSize=12;startSize=8;endSize=8;" parent="WIyWlLk6GJQsqaUBKTNV-1" source="Rqaln8O-QJsJvmHKmD0x-16" target="PBuQCArFa5jbhN4xJp0--57" edge="1">
          <mxGeometry relative="1" as="geometry" />
        </mxCell>
        <mxCell id="Rqaln8O-QJsJvmHKmD0x-16" value="加入BFS隊列&lt;div&gt;標記已訪問&lt;/div&gt;" style="rounded=0;whiteSpace=wrap;html=1;" parent="WIyWlLk6GJQsqaUBKTNV-1" vertex="1">
          <mxGeometry x="1476" y="555" width="130" height="60" as="geometry" />
        </mxCell>
        <mxCell id="Rqaln8O-QJsJvmHKmD0x-25" value="" style="edgeStyle=none;curved=1;rounded=0;orthogonalLoop=1;jettySize=auto;html=1;fontSize=12;startSize=8;endSize=8;entryX=0.5;entryY=0;entryDx=0;entryDy=0;" parent="WIyWlLk6GJQsqaUBKTNV-1" source="Rqaln8O-QJsJvmHKmD0x-18" target="PBuQCArFa5jbhN4xJp0--48" edge="1">
          <mxGeometry relative="1" as="geometry">
            <mxPoint x="1540" y="910" as="targetPoint" />
          </mxGeometry>
        </mxCell>
        <mxCell id="Rqaln8O-QJsJvmHKmD0x-26" value="Yes" style="edgeLabel;html=1;align=center;verticalAlign=middle;resizable=0;points=[];fontSize=12;" parent="Rqaln8O-QJsJvmHKmD0x-25" vertex="1" connectable="0">
          <mxGeometry x="-0.4865" y="-4" relative="1" as="geometry">
            <mxPoint x="3" y="5" as="offset" />
          </mxGeometry>
        </mxCell>
        <mxCell id="Rqaln8O-QJsJvmHKmD0x-18" value="BFS隊列為空?" style="rhombus;whiteSpace=wrap;html=1;" parent="WIyWlLk6GJQsqaUBKTNV-1" vertex="1">
          <mxGeometry x="1484.72" y="750" width="111.56" height="80" as="geometry" />
        </mxCell>
        <mxCell id="Rqaln8O-QJsJvmHKmD0x-21" style="edgeStyle=orthogonalEdgeStyle;rounded=0;orthogonalLoop=1;jettySize=auto;html=1;entryX=0;entryY=0.5;entryDx=0;entryDy=0;exitX=0;exitY=0.5;exitDx=0;exitDy=0;" parent="WIyWlLk6GJQsqaUBKTNV-1" source="Rqaln8O-QJsJvmHKmD0x-18" target="Rqaln8O-QJsJvmHKmD0x-14" edge="1">
          <mxGeometry relative="1" as="geometry">
            <Array as="points">
              <mxPoint x="1390" y="790" />
              <mxPoint x="1390" y="360" />
            </Array>
            <mxPoint x="1477" y="630" as="sourcePoint" />
            <mxPoint x="1481" y="510" as="targetPoint" />
          </mxGeometry>
        </mxCell>
        <mxCell id="Rqaln8O-QJsJvmHKmD0x-23" value="no" style="edgeLabel;html=1;align=center;verticalAlign=middle;resizable=0;points=[];fontSize=12;" parent="Rqaln8O-QJsJvmHKmD0x-21" vertex="1" connectable="0">
          <mxGeometry x="-0.7959" y="3" relative="1" as="geometry">
            <mxPoint y="-3" as="offset" />
          </mxGeometry>
        </mxCell>
        <mxCell id="PBuQCArFa5jbhN4xJp0--50" value="下一個節點" style="edgeLabel;html=1;align=center;verticalAlign=middle;resizable=0;points=[];fontSize=12;" parent="Rqaln8O-QJsJvmHKmD0x-21" vertex="1" connectable="0">
          <mxGeometry x="0.817" y="2" relative="1" as="geometry">
            <mxPoint x="4" y="2" as="offset" />
          </mxGeometry>
        </mxCell>
        <mxCell id="Rqaln8O-QJsJvmHKmD0x-24" value="End BFS function" style="rounded=1;whiteSpace=wrap;html=1;arcSize=50;" parent="WIyWlLk6GJQsqaUBKTNV-1" vertex="1">
          <mxGeometry x="1481" y="970" width="120" height="60" as="geometry" />
        </mxCell>
        <mxCell id="PBuQCArFa5jbhN4xJp0--46" value="" style="edgeStyle=none;curved=1;rounded=0;orthogonalLoop=1;jettySize=auto;html=1;fontSize=12;startSize=8;endSize=8;" parent="WIyWlLk6GJQsqaUBKTNV-1" source="nBRJpQgrgmeqpI3Wd9oI-0" target="PBuQCArFa5jbhN4xJp0--45" edge="1">
          <mxGeometry relative="1" as="geometry" />
        </mxCell>
        <mxCell id="nBRJpQgrgmeqpI3Wd9oI-0" value="初始化&amp;nbsp;&lt;div&gt;&lt;span style=&quot;background-color: initial;&quot;&gt;BFS隊列&lt;/span&gt;&lt;div&gt;&lt;span style=&quot;background-color: initial;&quot;&gt;優先隊列&lt;/span&gt;&lt;/div&gt;&lt;/div&gt;" style="rounded=0;whiteSpace=wrap;html=1;" parent="WIyWlLk6GJQsqaUBKTNV-1" vertex="1">
          <mxGeometry x="1481" y="131" width="120" height="60" as="geometry" />
        </mxCell>
        <mxCell id="PBuQCArFa5jbhN4xJp0--2" style="edgeStyle=none;curved=1;rounded=0;orthogonalLoop=1;jettySize=auto;html=1;exitX=0.5;exitY=1;exitDx=0;exitDy=0;entryX=0.5;entryY=0;entryDx=0;entryDy=0;fontSize=12;startSize=8;endSize=8;" parent="WIyWlLk6GJQsqaUBKTNV-1" source="PBuQCArFa5jbhN4xJp0--0" target="5Zuq6f4ll3MY33p2Iip3-35" edge="1">
          <mxGeometry relative="1" as="geometry" />
        </mxCell>
        <mxCell id="PBuQCArFa5jbhN4xJp0--8" value="No" style="edgeLabel;html=1;align=center;verticalAlign=middle;resizable=0;points=[];fontSize=12;" parent="PBuQCArFa5jbhN4xJp0--2" vertex="1" connectable="0">
          <mxGeometry x="-0.163" y="-3" relative="1" as="geometry">
            <mxPoint x="3" y="-1" as="offset" />
          </mxGeometry>
        </mxCell>
        <mxCell id="PBuQCArFa5jbhN4xJp0--0" value="Check if graph is empty" style="rhombus;whiteSpace=wrap;html=1;" parent="WIyWlLk6GJQsqaUBKTNV-1" vertex="1">
          <mxGeometry x="104.22" y="260" width="111.56" height="80" as="geometry" />
        </mxCell>
        <mxCell id="PBuQCArFa5jbhN4xJp0--4" style="edgeStyle=orthogonalEdgeStyle;rounded=0;orthogonalLoop=1;jettySize=auto;html=1;entryX=1;entryY=0.75;entryDx=0;entryDy=0;exitX=1;exitY=0.5;exitDx=0;exitDy=0;" parent="WIyWlLk6GJQsqaUBKTNV-1" source="PBuQCArFa5jbhN4xJp0--0" target="5Zuq6f4ll3MY33p2Iip3-29" edge="1">
          <mxGeometry relative="1" as="geometry">
            <Array as="points">
              <mxPoint x="250" y="300" />
              <mxPoint x="250" y="173" />
            </Array>
            <mxPoint x="280" y="240" as="sourcePoint" />
            <mxPoint x="230" y="210" as="targetPoint" />
          </mxGeometry>
        </mxCell>
        <mxCell id="PBuQCArFa5jbhN4xJp0--7" value="Yes" style="edgeLabel;html=1;align=center;verticalAlign=middle;resizable=0;points=[];fontSize=12;" parent="PBuQCArFa5jbhN4xJp0--4" vertex="1" connectable="0">
          <mxGeometry x="-0.1061" y="-1" relative="1" as="geometry">
            <mxPoint as="offset" />
          </mxGeometry>
        </mxCell>
        <mxCell id="maL6StaA8YDYa5zgpQ4w-0" value="" style="edgeStyle=orthogonalEdgeStyle;rounded=0;orthogonalLoop=1;jettySize=auto;html=1;" edge="1" parent="WIyWlLk6GJQsqaUBKTNV-1" source="PBuQCArFa5jbhN4xJp0--10" target="5Zuq6f4ll3MY33p2Iip3-55">
          <mxGeometry relative="1" as="geometry" />
        </mxCell>
        <mxCell id="PBuQCArFa5jbhN4xJp0--10" value="Print ID size" style="shape=parallelogram;perimeter=parallelogramPerimeter;whiteSpace=wrap;html=1;fixedSize=1;" parent="WIyWlLk6GJQsqaUBKTNV-1" vertex="1">
          <mxGeometry x="502" y="140" width="120" height="60" as="geometry" />
        </mxCell>
        <mxCell id="PBuQCArFa5jbhN4xJp0--29" value="" style="edgeStyle=none;curved=1;rounded=0;orthogonalLoop=1;jettySize=auto;html=1;fontSize=12;startSize=8;endSize=8;" parent="WIyWlLk6GJQsqaUBKTNV-1" source="PBuQCArFa5jbhN4xJp0--15" target="5Zuq6f4ll3MY33p2Iip3-86" edge="1">
          <mxGeometry relative="1" as="geometry" />
        </mxCell>
        <mxCell id="PBuQCArFa5jbhN4xJp0--15" value="for all nodes" style="shape=trapezoid;perimeter=trapezoidPerimeter;whiteSpace=wrap;html=1;fixedSize=1;" parent="WIyWlLk6GJQsqaUBKTNV-1" vertex="1">
          <mxGeometry x="934.05" y="131" width="120" height="60" as="geometry" />
        </mxCell>
        <mxCell id="PBuQCArFa5jbhN4xJp0--41" value="" style="edgeStyle=none;curved=1;rounded=0;orthogonalLoop=1;jettySize=auto;html=1;fontSize=12;startSize=8;endSize=8;" parent="WIyWlLk6GJQsqaUBKTNV-1" source="PBuQCArFa5jbhN4xJp0--16" target="PBuQCArFa5jbhN4xJp0--40" edge="1">
          <mxGeometry relative="1" as="geometry" />
        </mxCell>
        <mxCell id="PBuQCArFa5jbhN4xJp0--16" value="end for all nodes" style="shape=trapezoid;perimeter=trapezoidPerimeter;whiteSpace=wrap;fixedSize=1;rotation=0;verticalAlign=middle;horizontal=1;html=1;flipV=1;" parent="WIyWlLk6GJQsqaUBKTNV-1" vertex="1">
          <mxGeometry x="934.06" y="430" width="120" height="70" as="geometry" />
        </mxCell>
        <mxCell id="PBuQCArFa5jbhN4xJp0--25" value="End graph::writeTraverseAll" style="rounded=1;whiteSpace=wrap;html=1;arcSize=50;" parent="WIyWlLk6GJQsqaUBKTNV-1" vertex="1">
          <mxGeometry x="926.0799999999999" y="740" width="135.94" height="60" as="geometry" />
        </mxCell>
        <mxCell id="PBuQCArFa5jbhN4xJp0--32" style="edgeStyle=orthogonalEdgeStyle;rounded=0;orthogonalLoop=1;jettySize=auto;html=1;entryX=0;entryY=0.5;entryDx=0;entryDy=0;exitX=0;exitY=0.5;exitDx=0;exitDy=0;" parent="WIyWlLk6GJQsqaUBKTNV-1" source="PBuQCArFa5jbhN4xJp0--16" target="PBuQCArFa5jbhN4xJp0--15" edge="1">
          <mxGeometry relative="1" as="geometry">
            <Array as="points">
              <mxPoint x="890" y="465" />
              <mxPoint x="890" y="161" />
            </Array>
            <mxPoint x="837" y="327" as="sourcePoint" />
            <mxPoint x="827" y="200" as="targetPoint" />
          </mxGeometry>
        </mxCell>
        <mxCell id="PBuQCArFa5jbhN4xJp0--35" style="edgeStyle=orthogonalEdgeStyle;rounded=0;orthogonalLoop=1;jettySize=auto;html=1;entryX=1;entryY=0.5;entryDx=0;entryDy=0;exitX=1;exitY=0.5;exitDx=0;exitDy=0;" parent="WIyWlLk6GJQsqaUBKTNV-1" source="PBuQCArFa5jbhN4xJp0--15" target="PBuQCArFa5jbhN4xJp0--16" edge="1">
          <mxGeometry relative="1" as="geometry">
            <Array as="points">
              <mxPoint x="1110" y="161" />
              <mxPoint x="1110" y="465" />
            </Array>
            <mxPoint x="1184" y="333" as="sourcePoint" />
            <mxPoint x="1184" y="131" as="targetPoint" />
          </mxGeometry>
        </mxCell>
        <mxCell id="PBuQCArFa5jbhN4xJp0--36" value="There is no node" style="edgeLabel;html=1;align=center;verticalAlign=middle;resizable=0;points=[];fontSize=12;" parent="PBuQCArFa5jbhN4xJp0--35" vertex="1" connectable="0">
          <mxGeometry x="-0.4518" y="-1" relative="1" as="geometry">
            <mxPoint as="offset" />
          </mxGeometry>
        </mxCell>
        <mxCell id="PBuQCArFa5jbhN4xJp0--39" value="" style="edgeStyle=none;curved=1;rounded=0;orthogonalLoop=1;jettySize=auto;html=1;fontSize=12;startSize=8;endSize=8;" parent="WIyWlLk6GJQsqaUBKTNV-1" source="PBuQCArFa5jbhN4xJp0--37" target="PBuQCArFa5jbhN4xJp0--16" edge="1">
          <mxGeometry relative="1" as="geometry" />
        </mxCell>
        <mxCell id="PBuQCArFa5jbhN4xJp0--37" value="&lt;div&gt;ID、BFS結果&lt;/div&gt;加入優先隊列" style="shape=parallelogram;perimeter=parallelogramPerimeter;whiteSpace=wrap;html=1;fixedSize=1;" parent="WIyWlLk6GJQsqaUBKTNV-1" vertex="1">
          <mxGeometry x="934.06" y="330" width="120" height="60" as="geometry" />
        </mxCell>
        <mxCell id="PBuQCArFa5jbhN4xJp0--43" value="" style="edgeStyle=none;curved=1;rounded=0;orthogonalLoop=1;jettySize=auto;html=1;fontSize=12;startSize=8;endSize=8;" parent="WIyWlLk6GJQsqaUBKTNV-1" source="PBuQCArFa5jbhN4xJp0--40" target="PBuQCArFa5jbhN4xJp0--42" edge="1">
          <mxGeometry relative="1" as="geometry" />
        </mxCell>
        <mxCell id="PBuQCArFa5jbhN4xJp0--40" value="轉移優先隊列到&lt;div&gt;結果向量&lt;/div&gt;" style="shape=parallelogram;perimeter=parallelogramPerimeter;whiteSpace=wrap;html=1;fixedSize=1;" parent="WIyWlLk6GJQsqaUBKTNV-1" vertex="1">
          <mxGeometry x="934.05" y="540" width="120" height="60" as="geometry" />
        </mxCell>
        <mxCell id="PBuQCArFa5jbhN4xJp0--44" value="" style="edgeStyle=none;curved=1;rounded=0;orthogonalLoop=1;jettySize=auto;html=1;fontSize=12;startSize=8;endSize=8;" parent="WIyWlLk6GJQsqaUBKTNV-1" source="PBuQCArFa5jbhN4xJp0--42" target="PBuQCArFa5jbhN4xJp0--25" edge="1">
          <mxGeometry relative="1" as="geometry" />
        </mxCell>
        <mxCell id="PBuQCArFa5jbhN4xJp0--42" value="write to file" style="shape=parallelogram;perimeter=parallelogramPerimeter;whiteSpace=wrap;html=1;fixedSize=1;" parent="WIyWlLk6GJQsqaUBKTNV-1" vertex="1">
          <mxGeometry x="934.06" y="638" width="120" height="60" as="geometry" />
        </mxCell>
        <mxCell id="PBuQCArFa5jbhN4xJp0--47" value="" style="edgeStyle=none;curved=1;rounded=0;orthogonalLoop=1;jettySize=auto;html=1;fontSize=12;startSize=8;endSize=8;" parent="WIyWlLk6GJQsqaUBKTNV-1" source="PBuQCArFa5jbhN4xJp0--45" target="Rqaln8O-QJsJvmHKmD0x-14" edge="1">
          <mxGeometry relative="1" as="geometry" />
        </mxCell>
        <mxCell id="PBuQCArFa5jbhN4xJp0--45" value="起始節點加入&lt;span style=&quot;background-color: initial;&quot;&gt;BFS隊列&lt;/span&gt;" style="rounded=0;whiteSpace=wrap;html=1;" parent="WIyWlLk6GJQsqaUBKTNV-1" vertex="1">
          <mxGeometry x="1476.5" y="228" width="129" height="60" as="geometry" />
        </mxCell>
        <mxCell id="PBuQCArFa5jbhN4xJp0--49" value="" style="edgeStyle=none;curved=1;rounded=0;orthogonalLoop=1;jettySize=auto;html=1;fontSize=12;startSize=8;endSize=8;" parent="WIyWlLk6GJQsqaUBKTNV-1" source="PBuQCArFa5jbhN4xJp0--48" target="Rqaln8O-QJsJvmHKmD0x-24" edge="1">
          <mxGeometry relative="1" as="geometry" />
        </mxCell>
        <mxCell id="PBuQCArFa5jbhN4xJp0--48" value="返回優先隊列" style="rounded=0;whiteSpace=wrap;html=1;" parent="WIyWlLk6GJQsqaUBKTNV-1" vertex="1">
          <mxGeometry x="1481" y="870" width="120" height="60" as="geometry" />
        </mxCell>
        <mxCell id="PBuQCArFa5jbhN4xJp0--53" value="" style="edgeStyle=none;curved=1;rounded=0;orthogonalLoop=1;jettySize=auto;html=1;fontSize=12;startSize=8;endSize=8;" parent="WIyWlLk6GJQsqaUBKTNV-1" source="PBuQCArFa5jbhN4xJp0--51" target="Rqaln8O-QJsJvmHKmD0x-16" edge="1">
          <mxGeometry relative="1" as="geometry" />
        </mxCell>
        <mxCell id="PBuQCArFa5jbhN4xJp0--56" value="No" style="edgeLabel;html=1;align=center;verticalAlign=middle;resizable=0;points=[];fontSize=12;" parent="PBuQCArFa5jbhN4xJp0--53" vertex="1" connectable="0">
          <mxGeometry x="-0.5306" y="-1" relative="1" as="geometry">
            <mxPoint y="7" as="offset" />
          </mxGeometry>
        </mxCell>
        <mxCell id="PBuQCArFa5jbhN4xJp0--54" style="edgeStyle=none;curved=1;rounded=0;orthogonalLoop=1;jettySize=auto;html=1;exitX=0;exitY=0.5;exitDx=0;exitDy=0;fontSize=12;startSize=8;endSize=8;" parent="WIyWlLk6GJQsqaUBKTNV-1" source="PBuQCArFa5jbhN4xJp0--51" edge="1">
          <mxGeometry relative="1" as="geometry">
            <mxPoint x="1390" y="470" as="targetPoint" />
          </mxGeometry>
        </mxCell>
        <mxCell id="PBuQCArFa5jbhN4xJp0--55" value="Yes" style="edgeLabel;html=1;align=center;verticalAlign=middle;resizable=0;points=[];fontSize=12;" parent="PBuQCArFa5jbhN4xJp0--54" vertex="1" connectable="0">
          <mxGeometry x="-0.3643" y="-3" relative="1" as="geometry">
            <mxPoint y="3" as="offset" />
          </mxGeometry>
        </mxCell>
        <mxCell id="PBuQCArFa5jbhN4xJp0--51" value="訪問過了?" style="rhombus;whiteSpace=wrap;html=1;" parent="WIyWlLk6GJQsqaUBKTNV-1" vertex="1">
          <mxGeometry x="1485.22" y="430" width="111.56" height="80" as="geometry" />
        </mxCell>
        <mxCell id="PBuQCArFa5jbhN4xJp0--58" value="" style="edgeStyle=none;curved=1;rounded=0;orthogonalLoop=1;jettySize=auto;html=1;fontSize=12;startSize=8;endSize=8;" parent="WIyWlLk6GJQsqaUBKTNV-1" source="PBuQCArFa5jbhN4xJp0--57" target="Rqaln8O-QJsJvmHKmD0x-18" edge="1">
          <mxGeometry relative="1" as="geometry" />
        </mxCell>
        <mxCell id="PBuQCArFa5jbhN4xJp0--57" value="將邊加入優先隊列" style="rounded=0;whiteSpace=wrap;html=1;" parent="WIyWlLk6GJQsqaUBKTNV-1" vertex="1">
          <mxGeometry x="1475.5" y="650" width="130" height="60" as="geometry" />
        </mxCell>
      </root>
    </mxGraphModel>
  </diagram>
</mxfile>
